# xmcd CD database file
#
# Track frame offsets:
#	150
#	21478
#	37965
#	56625
#	72646
#	89446
#	111965
#	132987
#	158425
#	180562
#	203152
#	219263
#
# Disc length: 3182 seconds
#
# Revision: 0
# Processed by: cddbd v1.4PL0 Copyright (c) Steve Scherf et al.
# Submitted via: CDex 1.50beta10
#
DISCID=a80c6c0c
DTITLE=Bonnie Raitt - Road Tested - Disk 1
DYEAR=1995
DGENRE=Blues
TTITLE0=Thing Called Love
TTITLE1=Three Times a Loser
TTITLE2=Love Letter
TTITLE3=Never Make Your Move Too Soon
TTITLE4=Something To Talk About
TTITLE5=Matters of the Heart
TTITLE6=Shake A Little
TTITLE7=Have A Heart
TTITLE8=Love Me Like A Man
TTITLE9=The Kokomo Medley
TTITLE10=Louise
TTITLE11=Dimming of the Day
EXTD=YEAR: 1995
EXTT0=
EXTT1=
EXTT2=
EXTT3=
EXTT4=
EXTT5=
EXTT6=
EXTT7=
EXTT8=
EXTT9=
EXTT10=
EXTT11=
PLAYORDER=
